<?xml version="1.0" encoding="UTF-8" standalone="no"?>
<!-- Created with Inkscape (http://www.inkscape.org/) -->

<svg
   width="193.13475mm"
   height="116.87617mm"
   viewBox="0 0 193.13475 116.87617"
   version="1.1"
   id="svg5"
   sodipodi:docname="sleep_cloud_svg.svg"
   inkscape:version="1.1.1 (3bf5ae0d25, 2021-09-20)"
   xmlns:inkscape="http://www.inkscape.org/namespaces/inkscape"
   xmlns:sodipodi="http://sodipodi.sourceforge.net/DTD/sodipodi-0.dtd"
   xmlns="http://www.w3.org/2000/svg"
   xmlns:svg="http://www.w3.org/2000/svg">
  <sodipodi:namedview
     id="namedview6"
     pagecolor="#ffffff"
     bordercolor="#666666"
     borderopacity="1.0"
     inkscape:pageshadow="2"
     inkscape:pageopacity="0.0"
     inkscape:pagecheckerboard="0"
     inkscape:document-units="mm"
     showgrid="false"
     fit-margin-top="0"
     fit-margin-left="0"
     fit-margin-right="0"
     fit-margin-bottom="0"
     inkscape:zoom="0.72337262"
     inkscape:cx="248.83441"
     inkscape:cy="246.06959"
     inkscape:window-width="1670"
     inkscape:window-height="1030"
     inkscape:window-x="192"
     inkscape:window-y="0"
     inkscape:window-maximized="0"
     inkscape:current-layer="svg5" />
  <defs
     id="defs2" />
  <g
     id="layer2"
     style="opacity:1"
     transform="translate(-8.9739763,-83.236015)">
    <path
       id="path2208"
       style="fill:#ffffff;fill-opacity:1;stroke-width:0.235687"
       d="M 201.89838,146.79182 A 29.688531,36.195333 76.857396 0 0 201.53037,144.70329 29.688531,36.195333 76.857396 0 0 183.461,125.14847 24.725842,30.907305 81.716033 0 0 188.53158,108.12152 24.725842,30.907305 81.716033 0 0 154.38429,88.106705 24.725842,30.907305 81.716033 0 0 138.15276,94.5981 28.042723,37.239534 81.716033 0 0 102.70977,83.746754 28.042723,37.239534 81.716033 0 0 72.519153,102.82249 19.61279,25.920403 78.293423 0 0 44.078662,92.635387 19.61279,25.920403 78.293423 0 0 23.116859,117.30477 a 19.61279,25.920403 78.293423 0 0 2.896811,6.03317 31.810326,42.666198 78.470897 0 0 -16.4392478,32.59342 31.810326,42.666198 78.470897 0 0 42.3376678,22.94129 24.725842,30.907305 77.413172 0 0 0.409465,2.92064 24.725842,30.907305 77.413172 0 0 35.552823,17.39659 24.725842,30.907305 77.413172 0 0 21.274052,-13.94539 24.725842,30.907305 77.413172 0 0 15.36128,-0.22525 24.725842,30.907305 77.413172 0 0 16.98763,-8.83699 29.688531,36.195333 76.857396 0 0 31.13906,5.46392 29.688531,36.195333 76.857396 0 0 29.26198,-34.85435 z" />
  </g>
</svg>
